<?xml version="1.0" encoding="utf-8"?>
<!-- Generator: Adobe Illustrator 15.0.1, SVG Export Plug-In . SVG Version: 6.00 Build 0)  -->
<!DOCTYPE svg PUBLIC "-//W3C//DTD SVG 1.1//EN" "http://www.w3.org/Graphics/SVG/1.1/DTD/svg11.dtd">
<svg version="1.1" id="Layer_1" xmlns="http://www.w3.org/2000/svg" xmlns:xlink="http://www.w3.org/1999/xlink" x="0px" y="0px"
	 width="38px" height="38px" viewBox="0 0 38 38" enable-background="new 0 0 38 38" xml:space="preserve">
<g>
	<g>
		<path fill-rule="evenodd" clip-rule="evenodd" fill="#7DCEF4" d="M19,0C8.507,0,0,8.507,0,19s8.507,19,19,19s19-8.507,19-19
			S29.493,0,19,0z M9.92,27.137l1.491-10.592h6.062c-1.265-0.581-2.147-1.851-2.147-3.333c0-2.03,1.646-3.675,3.676-3.675
			c2.029,0,3.675,1.645,3.675,3.675c0,1.482-0.883,2.752-2.146,3.333h6.253l1.514,10.592H9.92z M20.529,16.545h-3.057
			c0.467,0.214,0.981,0.342,1.528,0.342C19.548,16.887,20.062,16.759,20.529,16.545z M21.479,13.213
			c0-1.369-1.109-2.479-2.479-2.479s-2.479,1.11-2.479,2.479s1.11,2.479,2.479,2.479S21.479,14.582,21.479,13.213z"/>
	</g>
</g>
</svg>
