<?xml version="1.0" encoding="utf-8"?>
<!-- Generator: Adobe Illustrator 15.0.1, SVG Export Plug-In . SVG Version: 6.00 Build 0)  -->
<!DOCTYPE svg PUBLIC "-//W3C//DTD SVG 1.1//EN" "http://www.w3.org/Graphics/SVG/1.1/DTD/svg11.dtd">
<svg version="1.1" id="Layer_1" xmlns="http://www.w3.org/2000/svg" xmlns:xlink="http://www.w3.org/1999/xlink" x="0px" y="0px"
	 width="38px" height="38px" viewBox="0 0 38 38" enable-background="new 0 0 38 38" xml:space="preserve">
<g>
	<g>
		<path fill-rule="evenodd" clip-rule="evenodd" fill="#EE7476" d="M19.141,10.945c-1.504,0-2.909,0.413-4.121,1.12l0.11,0.13
			l0.039-0.033l1.91,2.313l-4.858,0.292c-0.801,1.266-1.271,2.761-1.271,4.37c0,4.524,3.667,8.192,8.191,8.192
			c4.523,0,8.191-3.668,8.191-8.192C27.332,14.613,23.664,10.945,19.141,10.945z M19,0C8.507,0,0,8.507,0,19
			c0,10.494,8.507,19,19,19s19-8.506,19-19C38,8.507,29.493,0,19,0z M19.14,29.594c-5.775,0-10.457-4.684-10.457-10.458
			c0-1.532,0.337-2.982,0.929-4.293l1.646-7.231l1.971,2.263l-0.039,0.033l0.347,0.409c1.621-1.032,3.54-1.638,5.604-1.638
			c5.776,0,10.458,4.682,10.458,10.458C29.598,24.91,24.916,29.594,19.14,29.594z"/>
	</g>
</g>
</svg>
